<?xml version="1.0" encoding="UTF-8"?>
<svg xmlns="http://www.w3.org/2000/svg" xmlns:xlink="http://www.w3.org/1999/xlink" width="16px" height="16px" viewBox="0 0 16 16" version="1.1">
<g id="surface1">
<path style=" stroke:none;fill-rule:nonzero;fill:rgb(69.019608%,41.568627%,70.196078%);fill-opacity:1;" d="M 2.179688 15.144531 C 1.464844 15.144531 0.886719 14.5625 0.886719 13.847656 L 0.910156 2.234375 C 0.910156 1.515625 1.492188 0.9375 2.207031 0.941406 L 13.800781 0.960938 C 14.515625 0.960938 15.09375 1.542969 15.089844 2.257812 L 15.070312 13.871094 C 15.070312 14.589844 14.488281 15.167969 13.773438 15.164062 Z M 4.097656 4.109375 L 4.078125 14.410156 C 5.433594 14.414062 6.523438 13.328125 6.527344 11.96875 L 6.542969 1.664062 C 5.1875 1.664062 4.097656 2.75 4.097656 4.109375 Z M 8.664062 2.808594 L 6.945312 5.542969 L 6.9375 10.132812 L 12.042969 2.050781 C 10.90625 1.332031 9.398438 1.671875 8.664062 2.808594 Z M 9.25 7.230469 L 7.804688 9.523438 L 10.882812 14.421875 C 12.023438 13.710938 12.367188 12.199219 11.65625 11.042969 Z M 9.25 7.230469 "/>
</g>
</svg>
