<svg width="20" height="20" xmlns="http://www.w3.org/2000/svg" xmlns:undefined="http://www.inkscape.org/namespaces/inkscape">
 <g id="Layer_1">
  <title>Layer 1</title>
  <g stroke="null">

   <g stroke="null" transform="matrix(0.35808 0 0 -0.360916 9.64412 27.6279)"   id="svg_7">
    <g stroke="null" transform="translate(0 19.5) scale(0.1 0.1)" id="svg_8">
     <path stroke="null" fill-rule="nonzero" fill="#b06ab3" id="svg_9" d="m-210.7997,25.72977c-27.2304,0 -49.2617,22.0313 -49.2617,49.2617l0,441.4763c0,27.231 22.0313,49.262 49.2617,49.262l441.4763,0c27.231,0 49.262,-22.031 49.262,-49.262l0,-441.4763c0,-27.2304 -22.031,-49.2617 -49.262,-49.2617l-441.4763,0zm72.1873,419.648l0,-391.6363c51.711,0 93.082,41.3672 93.082,93.0393l0,391.679c-51.722,0 -93.082,-41.359 -93.082,-93.082zm173.86,49.762l-65.27,-104.019l0,-174.532l193.91,307.661c-43.328,27.14 -100.828,14.21 -128.64,-29.11zm22.621,-168.039l-54.918,-87.23l117.609,-186.1293c43.328,27.1485 56.258,84.6483 29.109,128.5903l-91.8,144.769z"/>
    </g>
   </g>
  </g>
 </g>

</svg>