<svg width="20" height="20" xmlns="http://www.w3.org/2000/svg">
 <g>
  <title>Layer 1</title>
  <g stroke="null" id="svg_1">
   <g stroke="null" id="svg_2" transform="matrix(0.155867 0 0 -0.175018 22.9259 14.4735)">
    <g stroke="null" id="svg_3" transform="translate(0 -184.928) scale(0.1 0.1)">
     <path stroke="null" d="m-283.93208,2072.58836c0,67.73 -41.29,126.48 -94.141,156.128l0,76.133c0,68.59 -59.097,128.828 -127.699,128.828l-238.199,0c-6.289,26.411 -36.563,61.641 -73.359,61.641c-36.801,0 -67.071,-35.23 -73.364,-61.641l-238.199,0c-68.59,0 -121.09,-60.238 -121.09,-128.828l0,-67.191c-66.0584,-25.309 -113.949,-89.61 -113.949,-165.07c0,-75.469 47.8906,-139.77 113.949,-165.079l0,-93.64c0,-68.5901 52.5,-120.00022 121.09,-120.00022l623.121,0c68.602,0 127.699,51.41012 127.699,120.00022l0,102.578c52.851,29.652 94.141,88.402 94.141,156.141zm-107.34,-254.34c0,-61.3714 -49.808,-111.1683 -111.211,-111.1683l-623.09,0c-61.41,0 -111.211,49.7969 -111.211,111.1683l0,491.019c0,61.403 49.801,111.211 111.211,111.211l623.09,0c61.403,0 111.211,-49.808 111.211,-111.211l0,-491.019zm-239.461,402.968c-89.371,0 -161.828,-72.457 -161.828,-161.839c0,-89.368 72.457,-161.829 161.828,-161.829c89.379,0 161.84,72.461 161.84,161.829c0,89.382 -72.461,161.839 -161.84,161.839zm0,-273.437c-61.64,0 -111.597,49.961 -111.597,111.598c0,61.601 49.957,111.562 111.597,111.562c61.641,0 111.602,-49.961 111.602,-111.562c0,-61.637 -49.961,-111.598 -111.602,-111.598zm-435.929,217.269c-58.399,0 -105.711,-47.308 -105.711,-105.671c0,-58.36 47.312,-105.7 105.711,-105.7c58.351,0 105.66,47.301 105.66,105.7c0,58.363 -47.309,105.671 -105.66,105.671zm0,-186.609c-44.731,0 -80.942,36.258 -80.942,80.938c0,44.691 36.211,80.902 80.942,80.902c44.679,0 80.89,-36.211 80.89,-80.902c0,-44.68 -36.211,-80.938 -80.89,-80.938z" id="svg_4" fill="#2cd5c4" fill-rule="evenodd"/>
    </g>
   </g>
  </g>
 </g>

</svg>