<?xml version="1.0" encoding="UTF-8" standalone="no"?>
<!-- Created with Inkscape (http://www.inkscape.org/) -->

<svg
   version="1.1"
   id="svg2"
   xml:space="preserve"
   width="420"
   height="85.333336"
   viewBox="0 0 420 85.333336"
   sodipodi:docname="customcolor_textlogo_transparent_background.eps"
   xmlns:inkscape="http://www.inkscape.org/namespaces/inkscape"
   xmlns:sodipodi="http://sodipodi.sourceforge.net/DTD/sodipodi-0.dtd"
   xmlns="http://www.w3.org/2000/svg"
   xmlns:svg="http://www.w3.org/2000/svg"><defs
     id="defs6"><clipPath
       clipPathUnits="userSpaceOnUse"
       id="clipPath18"><path
         d="M 13.5508,58.7109 H 38.1992 V 45.1602 H 13.5508 L 13.5508,5 H 0 V 99.8008 H 52.1914 V 86.0898 H 13.5508 Z"
         id="path16" /></clipPath><linearGradient
       x1="65"
       y1="235"
       x2="485"
       y2="235"
       gradientUnits="userSpaceOnUse"
       gradientTransform="matrix(7.5,0,0,-7.5,-487.5,2084.05)"
       spreadMethod="pad"
       id="linearGradient24"><stop
         style="stop-opacity:1;stop-color:#4568dc"
         offset="0"
         id="stop20" /><stop
         style="stop-opacity:1;stop-color:#b06ab3"
         offset="1"
         id="stop22" /></linearGradient><clipPath
       clipPathUnits="userSpaceOnUse"
       id="clipPath34"><path
         d="M 99.4883,99.8008 H 113.051 V 18.2813 h 44.527 V 5 H 99.4883 Z"
         id="path32" /></clipPath><linearGradient
       x1="65"
       y1="235"
       x2="485"
       y2="235"
       gradientUnits="userSpaceOnUse"
       gradientTransform="matrix(7.5,0,0,-7.5,-487.5,2084.05)"
       spreadMethod="pad"
       id="linearGradient40"><stop
         style="stop-opacity:1;stop-color:#4568dc"
         offset="0"
         id="stop36" /><stop
         style="stop-opacity:1;stop-color:#b06ab3"
         offset="1"
         id="stop38" /></linearGradient><clipPath
       clipPathUnits="userSpaceOnUse"
       id="clipPath50"><path
         d="m 217.422,39.2617 c 0,-2.9336 0.547,-5.7109 1.598,-8.3633 1.019,-2.6601 2.5,-4.957 4.378,-6.9882 1.872,-2 4.024,-3.6016 6.481,-4.7305 2.461,-1.1289 5.121,-1.7188 7.973,-1.7188 2.808,0 5.468,0.5899 7.929,1.7188 2.457,1.1289 4.649,2.7305 6.52,4.7305 1.879,2.0312 3.359,4.3281 4.461,6.9882 1.09,2.6524 1.636,5.4297 1.636,8.3633 v 60.5391 h 13.551 V 39.2617 c 0,-5.0429 -0.898,-9.6914 -2.73,-13.9922 -1.84,-4.289 -4.297,-8 -7.34,-11.1679 -3.051,-3.1211 -6.68,-5.58207 -10.828,-7.38285 -4.141,-1.79687 -8.551,-2.66016 -13.199,-2.66016 -4.692,0 -9.063,0.86329 -13.161,2.66016 -4.101,1.80078 -7.703,4.26175 -10.742,7.38285 -3.09,3.1679 -5.508,6.8789 -7.347,11.1679 -1.832,4.3008 -2.731,8.9493 -2.731,13.9922 v 60.5391 h 13.551 z"
         id="path48" /></clipPath><linearGradient
       x1="65"
       y1="235"
       x2="485"
       y2="235"
       gradientUnits="userSpaceOnUse"
       gradientTransform="matrix(7.5,0,0,-7.5,-487.5,2084.05)"
       spreadMethod="pad"
       id="linearGradient56"><stop
         style="stop-opacity:1;stop-color:#4568dc"
         offset="0"
         id="stop52" /><stop
         style="stop-opacity:1;stop-color:#b06ab3"
         offset="1"
         id="stop54" /></linearGradient><clipPath
       clipPathUnits="userSpaceOnUse"
       id="clipPath66"><path
         d="M 359.34,5 H 345.781 V 86.0898 H 318.52 v 13.711 h 67.652 V 86.0898 H 359.34 Z"
         id="path64" /></clipPath><linearGradient
       x1="65"
       y1="235"
       x2="485"
       y2="235"
       gradientUnits="userSpaceOnUse"
       gradientTransform="matrix(7.5,0,0,-7.5,-487.5,2084.05)"
       spreadMethod="pad"
       id="linearGradient72"><stop
         style="stop-opacity:1;stop-color:#4568dc"
         offset="0"
         id="stop68" /><stop
         style="stop-opacity:1;stop-color:#b06ab3"
         offset="1"
         id="stop70" /></linearGradient><clipPath
       clipPathUnits="userSpaceOnUse"
       id="clipPath82"><path
         d="M 467.461,5 H 453.91 v 81.0898 h -27.269 v 13.711 h 67.699 v -13.711 h -26.879 z"
         id="path80" /></clipPath><linearGradient
       x1="65"
       y1="235"
       x2="485"
       y2="235"
       gradientUnits="userSpaceOnUse"
       gradientTransform="matrix(7.5,0,0,-7.5,-487.5,2084.05)"
       spreadMethod="pad"
       id="linearGradient88"><stop
         style="stop-opacity:1;stop-color:#4568dc"
         offset="0"
         id="stop84" /><stop
         style="stop-opacity:1;stop-color:#b06ab3"
         offset="1"
         id="stop86" /></linearGradient><clipPath
       clipPathUnits="userSpaceOnUse"
       id="clipPath98"><path
         d="m 541.91,99.8008 h 52.192 V 86.0898 H 555.469 V 60.1992 h 23.98 V 46.6406 h -23.98 V 18.2813 h 39.73 V 5 H 541.91 Z"
         id="path96" /></clipPath><linearGradient
       x1="65"
       y1="235"
       x2="485"
       y2="235"
       gradientUnits="userSpaceOnUse"
       gradientTransform="matrix(7.5,0,0,-7.5,-487.5,2084.05)"
       spreadMethod="pad"
       id="linearGradient104"><stop
         style="stop-opacity:1;stop-color:#4568dc"
         offset="0"
         id="stop100" /><stop
         style="stop-opacity:1;stop-color:#b06ab3"
         offset="1"
         id="stop102" /></linearGradient><clipPath
       clipPathUnits="userSpaceOnUse"
       id="clipPath114"><path
         d="M 679.02,42.4219 H 659.301 V 5 h -13.563 v 94.8008 h 36.41 c 4.692,0 8.903,-0.582 12.692,-1.7891 3.789,-1.1719 7.039,-2.9726 9.73,-5.3125 2.7,-2.3906 4.77,-5.3594 6.211,-8.8711 1.489,-3.5195 2.188,-7.539 2.188,-12.1093 0,-7.9297 -1.918,-14.1407 -5.821,-18.629 -3.867,-4.4609 -8.668,-7.3906 -14.449,-8.75 L 714.609,5 H 698.48 Z m -19.719,12.8476 h 23.277 c 5.192,0 9.41,1.25 12.621,3.7891 3.16,2.5 4.762,6.4922 4.762,11.9922 0,2.7383 -0.43,5.039 -1.289,6.9609 -0.863,1.9102 -2.07,3.5078 -3.633,4.7188 -1.559,1.25 -3.359,2.1484 -5.469,2.7812 -2.109,0.5781 -4.449,0.8594 -6.992,0.8594 h -23.277 z"
         id="path112" /></clipPath><linearGradient
       x1="65"
       y1="235"
       x2="485"
       y2="235"
       gradientUnits="userSpaceOnUse"
       gradientTransform="matrix(7.5,0,0,-7.5,-487.5,2084.05)"
       spreadMethod="pad"
       id="linearGradient120"><stop
         style="stop-opacity:1;stop-color:#4568dc"
         offset="0"
         id="stop116" /><stop
         style="stop-opacity:1;stop-color:#b06ab3"
         offset="1"
         id="stop118" /></linearGradient><clipPath
       clipPathUnits="userSpaceOnUse"
       id="clipPath130"><path
         d="m 859.449,47.3398 h -21.09 v 8.3594 h 21.09 v 20 h 8.36 v -20 h 19.3 v -8.3594 h -19.3 V 26.9102 h -8.36 z"
         id="path128" /></clipPath><linearGradient
       x1="65"
       y1="235"
       x2="485"
       y2="235"
       gradientUnits="userSpaceOnUse"
       gradientTransform="matrix(7.5,0,0,-7.5,-487.5,2084.05)"
       spreadMethod="pad"
       id="linearGradient136"><stop
         style="stop-opacity:1;stop-color:#4568dc"
         offset="0"
         id="stop132" /><stop
         style="stop-opacity:1;stop-color:#b06ab3"
         offset="1"
         id="stop134" /></linearGradient><clipPath
       clipPathUnits="userSpaceOnUse"
       id="clipPath146"><path
         d="M 1047.5,50.3516 1031.76,29.9219 V 5 h -13.56 v 94.8008 h 13.56 V 50.1992 l 36.44,49.6016 h 17.39 L 1055.86,61.1719 1086.8,5 h -16.14 z"
         id="path144" /></clipPath><linearGradient
       x1="65"
       y1="235"
       x2="485"
       y2="235"
       gradientUnits="userSpaceOnUse"
       gradientTransform="matrix(7.5,0,0,-7.5,-487.5,2084.05)"
       spreadMethod="pad"
       id="linearGradient152"><stop
         style="stop-opacity:1;stop-color:#4568dc"
         offset="0"
         id="stop148" /><stop
         style="stop-opacity:1;stop-color:#b06ab3"
         offset="1"
         id="stop150" /></linearGradient><clipPath
       clipPathUnits="userSpaceOnUse"
       id="clipPath162"><path
         d="m 1163.16,101.719 c 5.86,0 11.25,-1.059 16.18,-3.1682 4.92,-2.0703 9.18,-5.2305 12.73,-9.4492 3.55,-4.1797 6.33,-9.3711 8.28,-15.5508 1.99,-6.1289 2.97,-13.2422 2.97,-21.2813 0,-8.1289 -0.98,-15.2382 -2.97,-21.3711 -1.95,-6.1289 -4.73,-11.25 -8.28,-15.3476 -3.55,-4.1016 -7.81,-7.19142 -12.73,-9.3008 -4.93,-2.10937 -10.32,-3.16016 -16.18,-3.16016 -5.82,0 -11.21,1.05079 -16.09,3.16016 -4.88,2.10938 -9.1,5.1992 -12.66,9.3008 -3.55,4.0976 -6.32,9.2187 -8.28,15.3476 -1.95,6.1329 -2.97,13.2422 -2.97,21.3711 0,8.0391 1.02,15.1524 2.97,21.2813 1.96,6.1797 4.73,11.3711 8.28,15.5508 3.56,4.2187 7.78,7.3789 12.66,9.4492 4.88,2.1092 10.27,3.1682 16.09,3.1682 z m 0,-13.7073 c -8.2,0 -14.64,-2.9336 -19.37,-8.832 -4.69,-5.8984 -7.03,-14.8399 -7.03,-26.9102 0,-12.039 2.34,-21.0195 7.03,-26.9179 4.73,-5.9024 11.17,-8.8321 19.37,-8.8321 8.13,0 14.61,2.9688 19.42,8.9922 4.76,5.9688 7.19,14.8789 7.19,26.7578 0,12.0703 -2.35,21.0118 -7.07,26.9102 -4.69,5.8984 -11.22,8.832 -19.54,8.832 z"
         id="path160" /></clipPath><linearGradient
       x1="65"
       y1="235"
       x2="485"
       y2="235"
       gradientUnits="userSpaceOnUse"
       gradientTransform="matrix(7.5,0,0,-7.5,-487.5,2084.05)"
       spreadMethod="pad"
       id="linearGradient168"><stop
         style="stop-opacity:1;stop-color:#4568dc"
         offset="0"
         id="stop164" /><stop
         style="stop-opacity:1;stop-color:#b06ab3"
         offset="1"
         id="stop166" /></linearGradient><clipPath
       clipPathUnits="userSpaceOnUse"
       id="clipPath178"><path
         d="m 1289.57,5 h -13.55 v 81.0898 h -27.27 v 13.711 h 67.7 v -13.711 h -26.88 z"
         id="path176" /></clipPath><linearGradient
       x1="65"
       y1="235"
       x2="485"
       y2="235"
       gradientUnits="userSpaceOnUse"
       gradientTransform="matrix(7.5,0,0,-7.5,-487.5,2084.05)"
       spreadMethod="pad"
       id="linearGradient184"><stop
         style="stop-opacity:1;stop-color:#4568dc"
         offset="0"
         id="stop180" /><stop
         style="stop-opacity:1;stop-color:#b06ab3"
         offset="1"
         id="stop182" /></linearGradient><clipPath
       clipPathUnits="userSpaceOnUse"
       id="clipPath194"><path
         d="m 1364.14,99.8008 h 13.59 V 18.2813 h 44.5 V 5 h -58.09 z"
         id="path192" /></clipPath><linearGradient
       x1="65"
       y1="235"
       x2="485"
       y2="235"
       gradientUnits="userSpaceOnUse"
       gradientTransform="matrix(7.5,0,0,-7.5,-487.5,2084.05)"
       spreadMethod="pad"
       id="linearGradient200"><stop
         style="stop-opacity:1;stop-color:#4568dc"
         offset="0"
         id="stop196" /><stop
         style="stop-opacity:1;stop-color:#b06ab3"
         offset="1"
         id="stop198" /></linearGradient><clipPath
       clipPathUnits="userSpaceOnUse"
       id="clipPath210"><path
         d="m 1469.06,5 h 13.5508 V 99.8008 H 1469.06 Z"
         id="path208" /></clipPath><linearGradient
       x1="65"
       y1="235"
       x2="485"
       y2="235"
       gradientUnits="userSpaceOnUse"
       gradientTransform="matrix(7.5,0,0,-7.5,-487.5,2084.05)"
       spreadMethod="pad"
       id="linearGradient216"><stop
         style="stop-opacity:1;stop-color:#4568dc"
         offset="0"
         id="stop212" /><stop
         style="stop-opacity:1;stop-color:#b06ab3"
         offset="1"
         id="stop214" /></linearGradient><clipPath
       clipPathUnits="userSpaceOnUse"
       id="clipPath226"><path
         d="m 1593.44,29.9219 v 69.8789 h 13.55 V 5 h -14.26 l -41.91,69.7305 V 5 h -13.55 v 94.8008 h 14.25 z"
         id="path224" /></clipPath><linearGradient
       x1="65"
       y1="235"
       x2="485"
       y2="235"
       gradientUnits="userSpaceOnUse"
       gradientTransform="matrix(7.5,0,0,-7.5,-487.5,2084.05)"
       spreadMethod="pad"
       id="linearGradient232"><stop
         style="stop-opacity:1;stop-color:#4568dc"
         offset="0"
         id="stop228" /><stop
         style="stop-opacity:1;stop-color:#b06ab3"
         offset="1"
         id="stop230" /></linearGradient><clipPath
       clipPathUnits="userSpaceOnUse"
       id="clipPath242"><path
         d="M 1828.12,99.8008 V 5 h -13.71 V 69.5313 L 1786.88,5 h -6.57 l -27.54,64.5313 V 5 h -13.55 v 94.8008 h 15.19 l 29.18,-68.4727 29.18,68.4727 z"
         id="path240" /></clipPath><linearGradient
       x1="65"
       y1="235"
       x2="485"
       y2="235"
       gradientUnits="userSpaceOnUse"
       gradientTransform="matrix(7.5,0,0,-7.5,-487.5,2084.05)"
       spreadMethod="pad"
       id="linearGradient248"><stop
         style="stop-opacity:1;stop-color:#4568dc"
         offset="0"
         id="stop244" /><stop
         style="stop-opacity:1;stop-color:#b06ab3"
         offset="1"
         id="stop246" /></linearGradient><clipPath
       clipPathUnits="userSpaceOnUse"
       id="clipPath258"><path
         d="m 1896.48,39.2617 c 0,-2.9336 0.51,-5.7109 1.57,-8.3633 1.05,-2.6601 2.5,-4.957 4.37,-6.9882 1.88,-2 4.06,-3.6016 6.53,-4.7305 2.46,-1.1289 5.11,-1.7188 7.93,-1.7188 2.85,0 5.46,0.5899 7.96,1.7188 2.46,1.1289 4.61,2.7305 6.49,4.7305 1.87,2.0312 3.36,4.3281 4.45,6.9882 1.1,2.6524 1.64,5.4297 1.64,8.3633 v 60.5391 h 13.56 V 39.2617 c 0,-5.0429 -0.9,-9.6914 -2.74,-13.9922 -1.83,-4.289 -4.26,-8 -7.3,-11.1679 -3.09,-3.1211 -6.68,-5.58207 -10.82,-7.38285 -4.18,-1.79687 -8.6,-2.66016 -13.24,-2.66016 -4.65,0 -9.03,0.86329 -13.17,2.66016 -4.1,1.80078 -7.66,4.26175 -10.74,7.38285 -3.05,3.1679 -5.51,6.8789 -7.31,11.1679 -1.83,4.3008 -2.77,8.9493 -2.77,13.9922 v 60.5391 h 13.59 z"
         id="path256" /></clipPath><linearGradient
       x1="65"
       y1="235"
       x2="485"
       y2="235"
       gradientUnits="userSpaceOnUse"
       gradientTransform="matrix(7.5,0,0,-7.5,-487.5,2084.05)"
       spreadMethod="pad"
       id="linearGradient264"><stop
         style="stop-opacity:1;stop-color:#4568dc"
         offset="0"
         id="stop260" /><stop
         style="stop-opacity:1;stop-color:#b06ab3"
         offset="1"
         id="stop262" /></linearGradient><clipPath
       clipPathUnits="userSpaceOnUse"
       id="clipPath274"><path
         d="m 2004.8,99.8008 h 13.56 V 18.2813 h 44.53 V 5 h -58.09 z"
         id="path272" /></clipPath><linearGradient
       x1="65"
       y1="235"
       x2="485"
       y2="235"
       gradientUnits="userSpaceOnUse"
       gradientTransform="matrix(7.5,0,0,-7.5,-487.5,2084.05)"
       spreadMethod="pad"
       id="linearGradient280"><stop
         style="stop-opacity:1;stop-color:#4568dc"
         offset="0"
         id="stop276" /><stop
         style="stop-opacity:1;stop-color:#b06ab3"
         offset="1"
         id="stop278" /></linearGradient><clipPath
       clipPathUnits="userSpaceOnUse"
       id="clipPath290"><path
         d="m 2132.77,5 h -13.55 v 81.0898 h -27.27 v 13.711 h 67.7 v -13.711 h -26.88 z"
         id="path288" /></clipPath><linearGradient
       x1="65"
       y1="235"
       x2="485"
       y2="235"
       gradientUnits="userSpaceOnUse"
       gradientTransform="matrix(7.5,0,0,-7.5,-487.5,2084.05)"
       spreadMethod="pad"
       id="linearGradient296"><stop
         style="stop-opacity:1;stop-color:#4568dc"
         offset="0"
         id="stop292" /><stop
         style="stop-opacity:1;stop-color:#b06ab3"
         offset="1"
         id="stop294" /></linearGradient><clipPath
       clipPathUnits="userSpaceOnUse"
       id="clipPath306"><path
         d="m 2206.72,5 h 13.5508 V 99.8008 H 2206.72 Z"
         id="path304" /></clipPath><linearGradient
       x1="65"
       y1="235"
       x2="485"
       y2="235"
       gradientUnits="userSpaceOnUse"
       gradientTransform="matrix(7.5,0,0,-7.5,-487.5,2084.05)"
       spreadMethod="pad"
       id="linearGradient312"><stop
         style="stop-opacity:1;stop-color:#4568dc"
         offset="0"
         id="stop308" /><stop
         style="stop-opacity:1;stop-color:#b06ab3"
         offset="1"
         id="stop310" /></linearGradient><clipPath
       clipPathUnits="userSpaceOnUse"
       id="clipPath322"><path
         d="m 2311.29,99.8008 c 9.33,0 16.8,-2.4219 22.42,-7.2617 5.59,-4.8399 8.4,-11.9493 8.4,-21.3672 0,-9.4922 -2.81,-16.6836 -8.4,-21.5235 -5.62,-4.8086 -13.09,-7.2265 -22.42,-7.2265 h -22.85 V 5 h -13.6 v 94.8008 z m -22.85,-44.5313 h 23.12 c 5.24,0 9.46,1.25 12.7,3.7891 3.24,2.5 4.84,6.4922 4.84,11.9922 0,5.3594 -1.64,9.2578 -4.92,11.6797 -3.28,2.4297 -7.5,3.6406 -12.62,3.6406 h -23.12 z"
         id="path320" /></clipPath><linearGradient
       x1="65"
       y1="235"
       x2="485"
       y2="235"
       gradientUnits="userSpaceOnUse"
       gradientTransform="matrix(7.5,0,0,-7.5,-487.5,2084.05)"
       spreadMethod="pad"
       id="linearGradient328"><stop
         style="stop-opacity:1;stop-color:#4568dc"
         offset="0"
         id="stop324" /><stop
         style="stop-opacity:1;stop-color:#b06ab3"
         offset="1"
         id="stop326" /></linearGradient><clipPath
       clipPathUnits="userSpaceOnUse"
       id="clipPath338"><path
         d="m 2390.7,99.8008 h 13.56 V 18.2813 h 44.53 V 5 h -58.09 z"
         id="path336" /></clipPath><linearGradient
       x1="65"
       y1="235"
       x2="485"
       y2="235"
       gradientUnits="userSpaceOnUse"
       gradientTransform="matrix(7.5,0,0,-7.5,-487.5,2084.05)"
       spreadMethod="pad"
       id="linearGradient344"><stop
         style="stop-opacity:1;stop-color:#4568dc"
         offset="0"
         id="stop340" /><stop
         style="stop-opacity:1;stop-color:#b06ab3"
         offset="1"
         id="stop342" /></linearGradient><clipPath
       clipPathUnits="userSpaceOnUse"
       id="clipPath354"><path
         d="m 2522.58,99.8008 h 11.8 L 2568.32,5 h -15.2 l -6.28,18.3594 H 2510 L 2503.83,5 h -15.08 z m -8.75,-63.4297 h 29.18 l -14.69,43.2773 z"
         id="path352" /></clipPath><linearGradient
       x1="65"
       y1="235"
       x2="485"
       y2="235"
       gradientUnits="userSpaceOnUse"
       gradientTransform="matrix(7.5,0,0,-7.5,-487.5,2084.05)"
       spreadMethod="pad"
       id="linearGradient360"><stop
         style="stop-opacity:1;stop-color:#4568dc"
         offset="0"
         id="stop356" /><stop
         style="stop-opacity:1;stop-color:#b06ab3"
         offset="1"
         id="stop358" /></linearGradient><clipPath
       clipPathUnits="userSpaceOnUse"
       id="clipPath370"><path
         d="m 2638.67,5 h -13.55 v 81.0898 h -27.27 v 13.711 h 67.7 v -13.711 h -26.88 z"
         id="path368" /></clipPath><linearGradient
       x1="65"
       y1="235"
       x2="485"
       y2="235"
       gradientUnits="userSpaceOnUse"
       gradientTransform="matrix(7.5,0,0,-7.5,-487.5,2084.05)"
       spreadMethod="pad"
       id="linearGradient376"><stop
         style="stop-opacity:1;stop-color:#4568dc"
         offset="0"
         id="stop372" /><stop
         style="stop-opacity:1;stop-color:#b06ab3"
         offset="1"
         id="stop374" /></linearGradient><clipPath
       clipPathUnits="userSpaceOnUse"
       id="clipPath386"><path
         d="m 2726.68,58.7109 h 24.65 V 45.1602 h -24.65 V 5 h -13.59 v 94.8008 h 52.22 v -13.711 h -38.63 z"
         id="path384" /></clipPath><linearGradient
       x1="65"
       y1="235"
       x2="485"
       y2="235"
       gradientUnits="userSpaceOnUse"
       gradientTransform="matrix(7.5,0,0,-7.5,-487.5,2084.05)"
       spreadMethod="pad"
       id="linearGradient392"><stop
         style="stop-opacity:1;stop-color:#4568dc"
         offset="0"
         id="stop388" /><stop
         style="stop-opacity:1;stop-color:#b06ab3"
         offset="1"
         id="stop390" /></linearGradient><clipPath
       clipPathUnits="userSpaceOnUse"
       id="clipPath402"><path
         d="m 2850.31,101.719 c 5.86,0 11.25,-1.059 16.17,-3.1682 4.93,-2.0703 9.18,-5.2305 12.74,-9.4492 3.55,-4.1797 6.33,-9.3711 8.28,-15.5508 1.95,-6.1289 2.93,-13.2422 2.93,-21.2813 0,-8.1289 -0.98,-15.2382 -2.93,-21.3711 -1.95,-6.1289 -4.73,-11.25 -8.28,-15.3476 -3.56,-4.1016 -7.81,-7.19142 -12.74,-9.3008 -4.92,-2.10937 -10.31,-3.16016 -16.17,-3.16016 -5.86,0 -11.21,1.05079 -16.09,3.16016 -4.88,2.10938 -9.1,5.1992 -12.66,9.3008 -3.59,4.0976 -6.33,9.2187 -8.32,15.3476 -1.95,6.1329 -2.93,13.2422 -2.93,21.3711 0,8.0391 0.98,15.1524 2.93,21.2813 1.99,6.1797 4.73,11.3711 8.32,15.5508 3.56,4.2187 7.78,7.3789 12.66,9.4492 4.88,2.1092 10.23,3.1682 16.09,3.1682 z m 0,-13.7073 c -8.2,0 -14.69,-2.9336 -19.37,-8.832 -4.73,-5.8984 -7.07,-14.8399 -7.07,-26.9102 0,-12.039 2.34,-21.0195 7.07,-26.9179 4.68,-5.9024 11.17,-8.8321 19.37,-8.8321 8.13,0 14.57,2.9688 19.38,8.9922 4.8,5.9688 7.19,14.8789 7.19,26.7578 0,12.0703 -2.35,21.0118 -7.04,26.9102 -4.72,5.8984 -11.21,8.832 -19.53,8.832 z"
         id="path400" /></clipPath><linearGradient
       x1="65"
       y1="235"
       x2="485"
       y2="235"
       gradientUnits="userSpaceOnUse"
       gradientTransform="matrix(7.5,0,0,-7.5,-487.5,2084.05)"
       spreadMethod="pad"
       id="linearGradient408"><stop
         style="stop-opacity:1;stop-color:#4568dc"
         offset="0"
         id="stop404" /><stop
         style="stop-opacity:1;stop-color:#b06ab3"
         offset="1"
         id="stop406" /></linearGradient><clipPath
       clipPathUnits="userSpaceOnUse"
       id="clipPath418"><path
         d="m 2976.72,42.4219 h -19.73 V 5 h -13.55 v 94.8008 h 36.44 c 4.65,0 8.87,-0.582 12.66,-1.7891 3.79,-1.1719 7.03,-2.9726 9.73,-5.3125 2.69,-2.3906 4.76,-5.3594 6.25,-8.8711 1.44,-3.5195 2.18,-7.539 2.18,-12.1093 0,-7.9297 -1.95,-14.1407 -5.82,-18.629 -3.86,-4.4609 -8.71,-7.3906 -14.45,-8.75 L 3012.34,5 h -16.17 z m -19.73,12.8476 h 23.28 c 5.24,0 9.42,1.25 12.62,3.7891 3.2,2.5 4.81,6.4922 4.81,11.9922 0,2.7383 -0.43,5.039 -1.33,6.9609 -0.86,1.9102 -2.07,3.5078 -3.6,4.7188 -1.56,1.25 -3.39,2.1484 -5.5,2.7812 -2.11,0.5781 -4.42,0.8594 -7,0.8594 h -23.28 z"
         id="path416" /></clipPath><linearGradient
       x1="65"
       y1="235"
       x2="485"
       y2="235"
       gradientUnits="userSpaceOnUse"
       gradientTransform="matrix(7.5,0,0,-7.5,-487.5,2084.05)"
       spreadMethod="pad"
       id="linearGradient424"><stop
         style="stop-opacity:1;stop-color:#4568dc"
         offset="0"
         id="stop420" /><stop
         style="stop-opacity:1;stop-color:#b06ab3"
         offset="1"
         id="stop422" /></linearGradient><clipPath
       clipPathUnits="userSpaceOnUse"
       id="clipPath434"><path
         d="M 3150,99.8008 V 5 h -13.71 V 69.5313 L 3108.75,5 h -6.56 l -27.54,64.5313 V 5 h -13.56 v 94.8008 h 15.2 l 29.18,-68.4727 29.18,68.4727 z"
         id="path432" /></clipPath><linearGradient
       x1="65"
       y1="235"
       x2="485"
       y2="235"
       gradientUnits="userSpaceOnUse"
       gradientTransform="matrix(7.5,0,0,-7.5,-487.5,2084.05)"
       spreadMethod="pad"
       id="linearGradient440"><stop
         style="stop-opacity:1;stop-color:#4568dc"
         offset="0"
         id="stop436" /><stop
         style="stop-opacity:1;stop-color:#b06ab3"
         offset="1"
         id="stop438" /></linearGradient><clipPath
       clipPathUnits="userSpaceOnUse"
       id="clipPath450"><path
         d="M 19.0586,640 C 13.8711,640 9.30078,638.16 5.46875,634.531 1.83984,630.699 0,626.129 0,620.941 V 225.469 c 0,-5.239 1.83984,-9.77 5.46875,-13.629 3.83203,-3.641 8.40235,-5.43 13.58985,-5.43 5.2422,0 9.6523,1.789 13.2812,5.43 3.8711,3.859 5.8204,8.39 5.8204,13.629 v 395.472 c 0,5.188 -1.9493,9.758 -5.8204,13.59 C 28.7109,638.16 24.3008,640 19.0586,640 Z M 403.281,620.941 c 0,5.188 -1.91,9.758 -5.781,13.59 -3.629,3.629 -8.051,5.469 -13.281,5.469 -5.239,0 -9.649,-1.84 -13.278,-5.469 -3.871,-3.832 -5.781,-8.402 -5.781,-13.59 v -75.98 c 0,-28.359 -10,-52.582 -30,-72.539 -20.199,-20.192 -44.379,-30.313 -72.539,-30.313 H 110.352 c -5.231,0 -9.762,-1.839 -13.6332,-5.468 -3.629,-3.629 -5.4297,-8.051 -5.4297,-13.282 0,-5.429 1.8007,-10 5.4297,-13.629 3.8712,-3.64 8.4022,-5.429 13.6332,-5.429 h 152.269 c 28.16,0 52.34,-10.121 72.539,-30.321 20,-20 30,-44.179 30,-72.531 v -75.98 c 0,-5.239 1.91,-9.77 5.781,-13.629 3.629,-3.641 8.039,-5.43 13.278,-5.43 5.23,0 9.652,1.789 13.281,5.43 3.871,3.859 5.781,8.39 5.781,13.629 v 75.98 c 0,25.621 -6.48,49.371 -19.41,71.172 -12.5,21.328 -29.422,38.277 -50.75,50.738 21.328,12.262 38.25,29.063 50.75,50.43 12.93,22.031 19.41,45.742 19.41,71.172 z"
         id="path448" /></clipPath><linearGradient
       x1="65"
       y1="235"
       x2="485"
       y2="235"
       gradientUnits="userSpaceOnUse"
       gradientTransform="matrix(7.5,0,0,-7.5,-487.5,2084.05)"
       spreadMethod="pad"
       id="linearGradient456"><stop
         style="stop-opacity:1;stop-color:#4568dc"
         offset="0"
         id="stop452" /><stop
         style="stop-opacity:1;stop-color:#b06ab3"
         offset="1"
         id="stop454" /></linearGradient><clipPath
       clipPathUnits="userSpaceOnUse"
       id="clipPath466"><path
         d="m 476.879,206.41 c -5.238,0 -9.77,1.789 -13.641,5.43 -3.629,3.859 -5.468,8.39 -5.468,13.629 v 395.472 c 0,5.188 1.839,9.758 5.468,13.59 3.871,3.629 8.403,5.469 13.641,5.469 5.191,0 9.641,-1.84 13.281,-5.469 3.86,-3.832 5.781,-8.402 5.781,-13.59 v -376.41 h 346.047 c 5.242,0 9.653,-1.91 13.282,-5.781 3.871,-3.629 5.781,-8.051 5.781,-13.281 0,-5.239 -1.91,-9.77 -5.781,-13.629 -3.629,-3.641 -8.04,-5.43 -13.282,-5.43 z"
         id="path464" /></clipPath><linearGradient
       x1="65"
       y1="235"
       x2="485"
       y2="235"
       gradientUnits="userSpaceOnUse"
       gradientTransform="matrix(7.5,0,0,-7.5,-487.5,2084.05)"
       spreadMethod="pad"
       id="linearGradient472"><stop
         style="stop-opacity:1;stop-color:#4568dc"
         offset="0"
         id="stop468" /><stop
         style="stop-opacity:1;stop-color:#b06ab3"
         offset="1"
         id="stop470" /></linearGradient><clipPath
       clipPathUnits="userSpaceOnUse"
       id="clipPath482"><path
         d="m 1056.25,244.531 c -28.16,0 -52.34,10 -72.539,30 -20,20.199 -30,44.379 -30,72.539 v 273.871 c 0,5.188 -1.91,9.758 -5.781,13.59 -3.629,3.629 -8.051,5.469 -13.282,5.469 -5.238,0 -9.769,-1.84 -13.628,-5.469 -3.641,-3.832 -5.43,-8.402 -5.43,-13.59 V 347.07 c 0,-38.832 13.711,-71.992 41.211,-99.449 27.461,-27.5 60.619,-41.211 99.449,-41.211 5.23,0 9.77,1.789 13.63,5.43 3.64,3.859 5.43,8.39 5.43,13.629 0,5.23 -1.79,9.652 -5.43,13.281 -3.86,3.871 -8.4,5.781 -13.63,5.781 z M 1299.77,640 c -5.2,0 -9.65,-1.84 -13.29,-5.469 -3.82,-3.832 -5.78,-8.402 -5.78,-13.59 V 347.07 c 0,-28.16 -10,-52.34 -29.96,-72.539 -20.23,-20 -44.41,-30 -72.54,-30 -5.47,0 -10,-1.91 -13.63,-5.781 -3.63,-3.629 -5.47,-8.051 -5.47,-13.281 0,-5.239 1.84,-9.77 5.47,-13.629 3.63,-3.641 8.16,-5.43 13.63,-5.43 38.83,0 71.96,13.711 99.46,41.211 27.46,27.457 41.21,60.617 41.21,99.449 v 273.871 c 0,5.188 -1.96,9.758 -5.78,13.59 -3.64,3.629 -8.09,5.469 -13.32,5.469 z"
         id="path480" /></clipPath><linearGradient
       x1="65"
       y1="235"
       x2="485"
       y2="235"
       gradientUnits="userSpaceOnUse"
       gradientTransform="matrix(7.5,0,0,-7.5,-487.5,2084.05)"
       spreadMethod="pad"
       id="linearGradient488"><stop
         style="stop-opacity:1;stop-color:#4568dc"
         offset="0"
         id="stop484" /><stop
         style="stop-opacity:1;stop-color:#b06ab3"
         offset="1"
         id="stop486" /></linearGradient><clipPath
       clipPathUnits="userSpaceOnUse"
       id="clipPath498"><path
         d="m 1392.42,640 c -5.19,0 -9.76,-1.84 -13.63,-5.469 -3.63,-3.832 -5.43,-8.402 -5.43,-13.59 0,-5.242 1.8,-9.652 5.43,-13.281 3.87,-3.64 8.44,-5.469 13.63,-5.469 h 171.02 V 225.469 c 0,-5.239 1.91,-9.77 5.78,-13.629 3.63,-3.641 8.05,-5.43 13.28,-5.43 5.23,0 9.77,1.789 13.63,5.43 3.64,3.859 5.43,8.39 5.43,13.629 v 376.722 h 156.02 c 5.19,0 9.65,1.829 13.28,5.469 3.87,3.629 5.78,8.039 5.78,13.281 0,5.188 -1.91,9.758 -5.78,13.59 -3.63,3.629 -8.09,5.469 -13.28,5.469 z"
         id="path496" /></clipPath><linearGradient
       x1="65"
       y1="235"
       x2="485"
       y2="235"
       gradientUnits="userSpaceOnUse"
       gradientTransform="matrix(7.5,0,0,-7.5,-487.5,2084.05)"
       spreadMethod="pad"
       id="linearGradient504"><stop
         style="stop-opacity:1;stop-color:#4568dc"
         offset="0"
         id="stop500" /><stop
         style="stop-opacity:1;stop-color:#b06ab3"
         offset="1"
         id="stop502" /></linearGradient><clipPath
       clipPathUnits="userSpaceOnUse"
       id="clipPath514"><path
         d="m 1850.23,640 c -5.23,0 -9.76,-1.84 -13.63,-5.469 -3.63,-3.832 -5.47,-8.402 -5.47,-13.59 0,-5.242 1.84,-9.652 5.47,-13.281 3.87,-3.64 8.4,-5.469 13.63,-5.469 h 170.98 V 225.469 c 0,-5.239 1.91,-9.77 5.78,-13.629 3.63,-3.641 8.05,-5.43 13.28,-5.43 5.24,0 9.77,1.789 13.64,5.43 3.63,3.859 5.43,8.39 5.43,13.629 v 376.722 h 156.01 c 5.24,0 9.65,1.829 13.28,5.469 3.87,3.629 5.78,8.039 5.78,13.281 0,5.188 -1.91,9.758 -5.78,13.59 -3.63,3.629 -8.04,5.469 -13.28,5.469 z"
         id="path512" /></clipPath><linearGradient
       x1="65"
       y1="235"
       x2="485"
       y2="235"
       gradientUnits="userSpaceOnUse"
       gradientTransform="matrix(7.5,0,0,-7.5,-487.5,2084.05)"
       spreadMethod="pad"
       id="linearGradient520"><stop
         style="stop-opacity:1;stop-color:#4568dc"
         offset="0"
         id="stop516" /><stop
         style="stop-opacity:1;stop-color:#b06ab3"
         offset="1"
         id="stop518" /></linearGradient><clipPath
       clipPathUnits="userSpaceOnUse"
       id="clipPath530"><path
         d="m 2308.01,244.531 c -5.24,0 -9.77,-1.91 -13.63,-5.781 -3.64,-3.629 -5.43,-8.051 -5.43,-13.281 0,-5.239 1.79,-9.77 5.43,-13.629 3.86,-3.641 8.39,-5.43 13.63,-5.43 h 365.11 c 5.24,0 9.65,1.789 13.29,5.43 3.86,3.859 5.82,8.39 5.82,13.629 0,5.23 -1.96,9.652 -5.82,13.281 -3.64,3.871 -8.05,5.781 -13.29,5.781 z m 365.11,357.66 c 5.24,0 9.65,1.829 13.29,5.469 3.86,3.629 5.82,8.039 5.82,13.281 0,5.188 -1.96,9.758 -5.82,13.59 -3.64,3.629 -8.05,5.469 -13.29,5.469 h -365.11 c -5.24,0 -9.77,-1.84 -13.63,-5.469 -3.64,-3.832 -5.43,-8.402 -5.43,-13.59 0,-5.242 1.79,-9.652 5.43,-13.281 3.86,-3.64 8.39,-5.469 13.63,-5.469 z M 2308.01,442.109 c -5.24,0 -9.77,-1.839 -13.63,-5.468 -3.64,-3.629 -5.43,-8.051 -5.43,-13.282 0,-5.429 1.79,-10 5.43,-13.629 3.86,-3.64 8.39,-5.429 13.63,-5.429 h 365.11 c 5.24,0 9.65,1.789 13.29,5.429 3.86,3.629 5.82,8.2 5.82,13.629 0,5.231 -1.96,9.653 -5.82,13.282 -3.64,3.629 -8.05,5.468 -13.29,5.468 z"
         id="path528" /></clipPath><linearGradient
       x1="65"
       y1="235"
       x2="485"
       y2="235"
       gradientUnits="userSpaceOnUse"
       gradientTransform="matrix(7.5,0,0,-7.5,-487.5,2084.05)"
       spreadMethod="pad"
       id="linearGradient536"><stop
         style="stop-opacity:1;stop-color:#4568dc"
         offset="0"
         id="stop532" /><stop
         style="stop-opacity:1;stop-color:#b06ab3"
         offset="1"
         id="stop534" /></linearGradient><clipPath
       clipPathUnits="userSpaceOnUse"
       id="clipPath546"><path
         d="m 3087.66,418.238 c 18.86,10.242 33.82,24.422 44.96,42.582 11.6,18.871 17.38,39.301 17.38,61.328 0,32.461 -11.56,60.274 -34.73,83.442 -22.97,22.93 -50.66,34.41 -83.12,34.41 h -266.37 c -5.23,0 -9.76,-1.84 -13.63,-5.469 -3.63,-3.832 -5.43,-8.402 -5.43,-13.59 0,-5.242 1.8,-9.652 5.43,-13.281 3.87,-3.64 8.4,-5.469 13.63,-5.469 h 266.37 c 22.03,0 40.74,-7.812 56.21,-23.519 15.66,-15.66 23.48,-34.492 23.48,-56.524 0,-22.027 -7.82,-40.859 -23.48,-56.527 -15.47,-15.699 -34.18,-23.512 -56.21,-23.512 h -266.37 c -5.23,0 -9.76,-1.839 -13.63,-5.468 -3.63,-3.629 -5.43,-8.051 -5.43,-13.282 0,-5.429 1.8,-10 5.43,-13.629 3.87,-3.64 8.4,-5.429 13.63,-5.429 h 243.56 c 28.16,0 52.34,-10.121 72.54,-30.321 20,-20 29.96,-44.179 29.96,-72.531 v -75.98 c 0,-5.239 1.95,-9.77 5.82,-13.629 3.63,-3.641 8.04,-5.43 13.28,-5.43 5.19,0 9.65,1.789 13.28,5.43 3.87,3.859 5.78,8.39 5.78,13.629 v 75.98 c 0,49.922 -20.78,88.86 -62.34,116.789 z"
         id="path544" /></clipPath><linearGradient
       x1="65"
       y1="235"
       x2="485"
       y2="235"
       gradientUnits="userSpaceOnUse"
       gradientTransform="matrix(7.5,0,0,-7.5,-487.5,2084.05)"
       spreadMethod="pad"
       id="linearGradient552"><stop
         style="stop-opacity:1;stop-color:#4568dc"
         offset="0"
         id="stop548" /><stop
         style="stop-opacity:1;stop-color:#b06ab3"
         offset="1"
         id="stop550" /></linearGradient></defs><sodipodi:namedview
     id="namedview4"
     pagecolor="#ffffff"
     bordercolor="#666666"
     borderopacity="1.0"
     inkscape:pageshadow="2"
     inkscape:pageopacity="0.0"
     inkscape:pagecheckerboard="0" /><g
     id="g8"
     inkscape:groupmode="layer"
     inkscape:label="ink_ext_XXXXXX"
     transform="matrix(1.3333333,0,0,-1.3333333,0,85.333333)"><g
       id="g10"
       transform="scale(0.1)"><g
         id="g12"><g
           id="g14"
           clip-path="url(#clipPath18)"><path
             d="M 13.5508,58.7109 H 38.1992 V 45.1602 H 13.5508 L 13.5508,5 H 0 V 99.8008 H 52.1914 V 86.0898 H 13.5508 Z"
             style="fill:url(#linearGradient24);fill-opacity:1;fill-rule:nonzero;stroke:none"
             id="path26" /></g></g><g
         id="g28"><g
           id="g30"
           clip-path="url(#clipPath34)"><path
             d="M 99.4883,99.8008 H 113.051 V 18.2813 h 44.527 V 5 H 99.4883 Z"
             style="fill:url(#linearGradient40);fill-opacity:1;fill-rule:nonzero;stroke:none"
             id="path42" /></g></g><g
         id="g44"><g
           id="g46"
           clip-path="url(#clipPath50)"><path
             d="m 217.422,39.2617 c 0,-2.9336 0.547,-5.7109 1.598,-8.3633 1.019,-2.6601 2.5,-4.957 4.378,-6.9882 1.872,-2 4.024,-3.6016 6.481,-4.7305 2.461,-1.1289 5.121,-1.7188 7.973,-1.7188 2.808,0 5.468,0.5899 7.929,1.7188 2.457,1.1289 4.649,2.7305 6.52,4.7305 1.879,2.0312 3.359,4.3281 4.461,6.9882 1.09,2.6524 1.636,5.4297 1.636,8.3633 v 60.5391 h 13.551 V 39.2617 c 0,-5.0429 -0.898,-9.6914 -2.73,-13.9922 -1.84,-4.289 -4.297,-8 -7.34,-11.1679 -3.051,-3.1211 -6.68,-5.58207 -10.828,-7.38285 -4.141,-1.79687 -8.551,-2.66016 -13.199,-2.66016 -4.692,0 -9.063,0.86329 -13.161,2.66016 -4.101,1.80078 -7.703,4.26175 -10.742,7.38285 -3.09,3.1679 -5.508,6.8789 -7.347,11.1679 -1.832,4.3008 -2.731,8.9493 -2.731,13.9922 v 60.5391 h 13.551 z"
             style="fill:url(#linearGradient56);fill-opacity:1;fill-rule:nonzero;stroke:none"
             id="path58" /></g></g><g
         id="g60"><g
           id="g62"
           clip-path="url(#clipPath66)"><path
             d="M 359.34,5 H 345.781 V 86.0898 H 318.52 v 13.711 h 67.652 V 86.0898 H 359.34 Z"
             style="fill:url(#linearGradient72);fill-opacity:1;fill-rule:nonzero;stroke:none"
             id="path74" /></g></g><g
         id="g76"><g
           id="g78"
           clip-path="url(#clipPath82)"><path
             d="M 467.461,5 H 453.91 v 81.0898 h -27.269 v 13.711 h 67.699 v -13.711 h -26.879 z"
             style="fill:url(#linearGradient88);fill-opacity:1;fill-rule:nonzero;stroke:none"
             id="path90" /></g></g><g
         id="g92"><g
           id="g94"
           clip-path="url(#clipPath98)"><path
             d="m 541.91,99.8008 h 52.192 V 86.0898 H 555.469 V 60.1992 h 23.98 V 46.6406 h -23.98 V 18.2813 h 39.73 V 5 H 541.91 Z"
             style="fill:url(#linearGradient104);fill-opacity:1;fill-rule:nonzero;stroke:none"
             id="path106" /></g></g><g
         id="g108"><g
           id="g110"
           clip-path="url(#clipPath114)"><path
             d="M 679.02,42.4219 H 659.301 V 5 h -13.563 v 94.8008 h 36.41 c 4.692,0 8.903,-0.582 12.692,-1.7891 3.789,-1.1719 7.039,-2.9726 9.73,-5.3125 2.7,-2.3906 4.77,-5.3594 6.211,-8.8711 1.489,-3.5195 2.188,-7.539 2.188,-12.1093 0,-7.9297 -1.918,-14.1407 -5.821,-18.629 -3.867,-4.4609 -8.668,-7.3906 -14.449,-8.75 L 714.609,5 H 698.48 Z m -19.719,12.8476 h 23.277 c 5.192,0 9.41,1.25 12.621,3.7891 3.16,2.5 4.762,6.4922 4.762,11.9922 0,2.7383 -0.43,5.039 -1.289,6.9609 -0.863,1.9102 -2.07,3.5078 -3.633,4.7188 -1.559,1.25 -3.359,2.1484 -5.469,2.7812 -2.109,0.5781 -4.449,0.8594 -6.992,0.8594 h -23.277 z"
             style="fill:url(#linearGradient120);fill-opacity:1;fill-rule:nonzero;stroke:none"
             id="path122" /></g></g><g
         id="g124"><g
           id="g126"
           clip-path="url(#clipPath130)"><path
             d="m 859.449,47.3398 h -21.09 v 8.3594 h 21.09 v 20 h 8.36 v -20 h 19.3 v -8.3594 h -19.3 V 26.9102 h -8.36 z"
             style="fill:url(#linearGradient136);fill-opacity:1;fill-rule:nonzero;stroke:none"
             id="path138" /></g></g><g
         id="g140"><g
           id="g142"
           clip-path="url(#clipPath146)"><path
             d="M 1047.5,50.3516 1031.76,29.9219 V 5 h -13.56 v 94.8008 h 13.56 V 50.1992 l 36.44,49.6016 h 17.39 L 1055.86,61.1719 1086.8,5 h -16.14 z"
             style="fill:url(#linearGradient152);fill-opacity:1;fill-rule:nonzero;stroke:none"
             id="path154" /></g></g><g
         id="g156"><g
           id="g158"
           clip-path="url(#clipPath162)"><path
             d="m 1163.16,101.719 c 5.86,0 11.25,-1.059 16.18,-3.1682 4.92,-2.0703 9.18,-5.2305 12.73,-9.4492 3.55,-4.1797 6.33,-9.3711 8.28,-15.5508 1.99,-6.1289 2.97,-13.2422 2.97,-21.2813 0,-8.1289 -0.98,-15.2382 -2.97,-21.3711 -1.95,-6.1289 -4.73,-11.25 -8.28,-15.3476 -3.55,-4.1016 -7.81,-7.19142 -12.73,-9.3008 -4.93,-2.10937 -10.32,-3.16016 -16.18,-3.16016 -5.82,0 -11.21,1.05079 -16.09,3.16016 -4.88,2.10938 -9.1,5.1992 -12.66,9.3008 -3.55,4.0976 -6.32,9.2187 -8.28,15.3476 -1.95,6.1329 -2.97,13.2422 -2.97,21.3711 0,8.0391 1.02,15.1524 2.97,21.2813 1.96,6.1797 4.73,11.3711 8.28,15.5508 3.56,4.2187 7.78,7.3789 12.66,9.4492 4.88,2.1092 10.27,3.1682 16.09,3.1682 z m 0,-13.7073 c -8.2,0 -14.64,-2.9336 -19.37,-8.832 -4.69,-5.8984 -7.03,-14.8399 -7.03,-26.9102 0,-12.039 2.34,-21.0195 7.03,-26.9179 4.73,-5.9024 11.17,-8.8321 19.37,-8.8321 8.13,0 14.61,2.9688 19.42,8.9922 4.76,5.9688 7.19,14.8789 7.19,26.7578 0,12.0703 -2.35,21.0118 -7.07,26.9102 -4.69,5.8984 -11.22,8.832 -19.54,8.832 z"
             style="fill:url(#linearGradient168);fill-opacity:1;fill-rule:nonzero;stroke:none"
             id="path170" /></g></g><g
         id="g172"><g
           id="g174"
           clip-path="url(#clipPath178)"><path
             d="m 1289.57,5 h -13.55 v 81.0898 h -27.27 v 13.711 h 67.7 v -13.711 h -26.88 z"
             style="fill:url(#linearGradient184);fill-opacity:1;fill-rule:nonzero;stroke:none"
             id="path186" /></g></g><g
         id="g188"><g
           id="g190"
           clip-path="url(#clipPath194)"><path
             d="m 1364.14,99.8008 h 13.59 V 18.2813 h 44.5 V 5 h -58.09 z"
             style="fill:url(#linearGradient200);fill-opacity:1;fill-rule:nonzero;stroke:none"
             id="path202" /></g></g><g
         id="g204"><g
           id="g206"
           clip-path="url(#clipPath210)"><path
             d="m 1469.06,5 h 13.5508 V 99.8008 H 1469.06 Z"
             style="fill:url(#linearGradient216);fill-opacity:1;fill-rule:nonzero;stroke:none"
             id="path218" /></g></g><g
         id="g220"><g
           id="g222"
           clip-path="url(#clipPath226)"><path
             d="m 1593.44,29.9219 v 69.8789 h 13.55 V 5 h -14.26 l -41.91,69.7305 V 5 h -13.55 v 94.8008 h 14.25 z"
             style="fill:url(#linearGradient232);fill-opacity:1;fill-rule:nonzero;stroke:none"
             id="path234" /></g></g><g
         id="g236"><g
           id="g238"
           clip-path="url(#clipPath242)"><path
             d="M 1828.12,99.8008 V 5 h -13.71 V 69.5313 L 1786.88,5 h -6.57 l -27.54,64.5313 V 5 h -13.55 v 94.8008 h 15.19 l 29.18,-68.4727 29.18,68.4727 z"
             style="fill:url(#linearGradient248);fill-opacity:1;fill-rule:nonzero;stroke:none"
             id="path250" /></g></g><g
         id="g252"><g
           id="g254"
           clip-path="url(#clipPath258)"><path
             d="m 1896.48,39.2617 c 0,-2.9336 0.51,-5.7109 1.57,-8.3633 1.05,-2.6601 2.5,-4.957 4.37,-6.9882 1.88,-2 4.06,-3.6016 6.53,-4.7305 2.46,-1.1289 5.11,-1.7188 7.93,-1.7188 2.85,0 5.46,0.5899 7.96,1.7188 2.46,1.1289 4.61,2.7305 6.49,4.7305 1.87,2.0312 3.36,4.3281 4.45,6.9882 1.1,2.6524 1.64,5.4297 1.64,8.3633 v 60.5391 h 13.56 V 39.2617 c 0,-5.0429 -0.9,-9.6914 -2.74,-13.9922 -1.83,-4.289 -4.26,-8 -7.3,-11.1679 -3.09,-3.1211 -6.68,-5.58207 -10.82,-7.38285 -4.18,-1.79687 -8.6,-2.66016 -13.24,-2.66016 -4.65,0 -9.03,0.86329 -13.17,2.66016 -4.1,1.80078 -7.66,4.26175 -10.74,7.38285 -3.05,3.1679 -5.51,6.8789 -7.31,11.1679 -1.83,4.3008 -2.77,8.9493 -2.77,13.9922 v 60.5391 h 13.59 z"
             style="fill:url(#linearGradient264);fill-opacity:1;fill-rule:nonzero;stroke:none"
             id="path266" /></g></g><g
         id="g268"><g
           id="g270"
           clip-path="url(#clipPath274)"><path
             d="m 2004.8,99.8008 h 13.56 V 18.2813 h 44.53 V 5 h -58.09 z"
             style="fill:url(#linearGradient280);fill-opacity:1;fill-rule:nonzero;stroke:none"
             id="path282" /></g></g><g
         id="g284"><g
           id="g286"
           clip-path="url(#clipPath290)"><path
             d="m 2132.77,5 h -13.55 v 81.0898 h -27.27 v 13.711 h 67.7 v -13.711 h -26.88 z"
             style="fill:url(#linearGradient296);fill-opacity:1;fill-rule:nonzero;stroke:none"
             id="path298" /></g></g><g
         id="g300"><g
           id="g302"
           clip-path="url(#clipPath306)"><path
             d="m 2206.72,5 h 13.5508 V 99.8008 H 2206.72 Z"
             style="fill:url(#linearGradient312);fill-opacity:1;fill-rule:nonzero;stroke:none"
             id="path314" /></g></g><g
         id="g316"><g
           id="g318"
           clip-path="url(#clipPath322)"><path
             d="m 2311.29,99.8008 c 9.33,0 16.8,-2.4219 22.42,-7.2617 5.59,-4.8399 8.4,-11.9493 8.4,-21.3672 0,-9.4922 -2.81,-16.6836 -8.4,-21.5235 -5.62,-4.8086 -13.09,-7.2265 -22.42,-7.2265 h -22.85 V 5 h -13.6 v 94.8008 z m -22.85,-44.5313 h 23.12 c 5.24,0 9.46,1.25 12.7,3.7891 3.24,2.5 4.84,6.4922 4.84,11.9922 0,5.3594 -1.64,9.2578 -4.92,11.6797 -3.28,2.4297 -7.5,3.6406 -12.62,3.6406 h -23.12 z"
             style="fill:url(#linearGradient328);fill-opacity:1;fill-rule:nonzero;stroke:none"
             id="path330" /></g></g><g
         id="g332"><g
           id="g334"
           clip-path="url(#clipPath338)"><path
             d="m 2390.7,99.8008 h 13.56 V 18.2813 h 44.53 V 5 h -58.09 z"
             style="fill:url(#linearGradient344);fill-opacity:1;fill-rule:nonzero;stroke:none"
             id="path346" /></g></g><g
         id="g348"><g
           id="g350"
           clip-path="url(#clipPath354)"><path
             d="m 2522.58,99.8008 h 11.8 L 2568.32,5 h -15.2 l -6.28,18.3594 H 2510 L 2503.83,5 h -15.08 z m -8.75,-63.4297 h 29.18 l -14.69,43.2773 z"
             style="fill:url(#linearGradient360);fill-opacity:1;fill-rule:nonzero;stroke:none"
             id="path362" /></g></g><g
         id="g364"><g
           id="g366"
           clip-path="url(#clipPath370)"><path
             d="m 2638.67,5 h -13.55 v 81.0898 h -27.27 v 13.711 h 67.7 v -13.711 h -26.88 z"
             style="fill:url(#linearGradient376);fill-opacity:1;fill-rule:nonzero;stroke:none"
             id="path378" /></g></g><g
         id="g380"><g
           id="g382"
           clip-path="url(#clipPath386)"><path
             d="m 2726.68,58.7109 h 24.65 V 45.1602 h -24.65 V 5 h -13.59 v 94.8008 h 52.22 v -13.711 h -38.63 z"
             style="fill:url(#linearGradient392);fill-opacity:1;fill-rule:nonzero;stroke:none"
             id="path394" /></g></g><g
         id="g396"><g
           id="g398"
           clip-path="url(#clipPath402)"><path
             d="m 2850.31,101.719 c 5.86,0 11.25,-1.059 16.17,-3.1682 4.93,-2.0703 9.18,-5.2305 12.74,-9.4492 3.55,-4.1797 6.33,-9.3711 8.28,-15.5508 1.95,-6.1289 2.93,-13.2422 2.93,-21.2813 0,-8.1289 -0.98,-15.2382 -2.93,-21.3711 -1.95,-6.1289 -4.73,-11.25 -8.28,-15.3476 -3.56,-4.1016 -7.81,-7.19142 -12.74,-9.3008 -4.92,-2.10937 -10.31,-3.16016 -16.17,-3.16016 -5.86,0 -11.21,1.05079 -16.09,3.16016 -4.88,2.10938 -9.1,5.1992 -12.66,9.3008 -3.59,4.0976 -6.33,9.2187 -8.32,15.3476 -1.95,6.1329 -2.93,13.2422 -2.93,21.3711 0,8.0391 0.98,15.1524 2.93,21.2813 1.99,6.1797 4.73,11.3711 8.32,15.5508 3.56,4.2187 7.78,7.3789 12.66,9.4492 4.88,2.1092 10.23,3.1682 16.09,3.1682 z m 0,-13.7073 c -8.2,0 -14.69,-2.9336 -19.37,-8.832 -4.73,-5.8984 -7.07,-14.8399 -7.07,-26.9102 0,-12.039 2.34,-21.0195 7.07,-26.9179 4.68,-5.9024 11.17,-8.8321 19.37,-8.8321 8.13,0 14.57,2.9688 19.38,8.9922 4.8,5.9688 7.19,14.8789 7.19,26.7578 0,12.0703 -2.35,21.0118 -7.04,26.9102 -4.72,5.8984 -11.21,8.832 -19.53,8.832 z"
             style="fill:url(#linearGradient408);fill-opacity:1;fill-rule:nonzero;stroke:none"
             id="path410" /></g></g><g
         id="g412"><g
           id="g414"
           clip-path="url(#clipPath418)"><path
             d="m 2976.72,42.4219 h -19.73 V 5 h -13.55 v 94.8008 h 36.44 c 4.65,0 8.87,-0.582 12.66,-1.7891 3.79,-1.1719 7.03,-2.9726 9.73,-5.3125 2.69,-2.3906 4.76,-5.3594 6.25,-8.8711 1.44,-3.5195 2.18,-7.539 2.18,-12.1093 0,-7.9297 -1.95,-14.1407 -5.82,-18.629 -3.86,-4.4609 -8.71,-7.3906 -14.45,-8.75 L 3012.34,5 h -16.17 z m -19.73,12.8476 h 23.28 c 5.24,0 9.42,1.25 12.62,3.7891 3.2,2.5 4.81,6.4922 4.81,11.9922 0,2.7383 -0.43,5.039 -1.33,6.9609 -0.86,1.9102 -2.07,3.5078 -3.6,4.7188 -1.56,1.25 -3.39,2.1484 -5.5,2.7812 -2.11,0.5781 -4.42,0.8594 -7,0.8594 h -23.28 z"
             style="fill:url(#linearGradient424);fill-opacity:1;fill-rule:nonzero;stroke:none"
             id="path426" /></g></g><g
         id="g428"><g
           id="g430"
           clip-path="url(#clipPath434)"><path
             d="M 3150,99.8008 V 5 h -13.71 V 69.5313 L 3108.75,5 h -6.56 l -27.54,64.5313 V 5 h -13.56 v 94.8008 h 15.2 l 29.18,-68.4727 29.18,68.4727 z"
             style="fill:url(#linearGradient440);fill-opacity:1;fill-rule:nonzero;stroke:none"
             id="path442" /></g></g><g
         id="g444"><g
           id="g446"
           clip-path="url(#clipPath450)"><path
             d="M 19.0586,640 C 13.8711,640 9.30078,638.16 5.46875,634.531 1.83984,630.699 0,626.129 0,620.941 V 225.469 c 0,-5.239 1.83984,-9.77 5.46875,-13.629 3.83203,-3.641 8.40235,-5.43 13.58985,-5.43 5.2422,0 9.6523,1.789 13.2812,5.43 3.8711,3.859 5.8204,8.39 5.8204,13.629 v 395.472 c 0,5.188 -1.9493,9.758 -5.8204,13.59 C 28.7109,638.16 24.3008,640 19.0586,640 Z M 403.281,620.941 c 0,5.188 -1.91,9.758 -5.781,13.59 -3.629,3.629 -8.051,5.469 -13.281,5.469 -5.239,0 -9.649,-1.84 -13.278,-5.469 -3.871,-3.832 -5.781,-8.402 -5.781,-13.59 v -75.98 c 0,-28.359 -10,-52.582 -30,-72.539 -20.199,-20.192 -44.379,-30.313 -72.539,-30.313 H 110.352 c -5.231,0 -9.762,-1.839 -13.6332,-5.468 -3.629,-3.629 -5.4297,-8.051 -5.4297,-13.282 0,-5.429 1.8007,-10 5.4297,-13.629 3.8712,-3.64 8.4022,-5.429 13.6332,-5.429 h 152.269 c 28.16,0 52.34,-10.121 72.539,-30.321 20,-20 30,-44.179 30,-72.531 v -75.98 c 0,-5.239 1.91,-9.77 5.781,-13.629 3.629,-3.641 8.039,-5.43 13.278,-5.43 5.23,0 9.652,1.789 13.281,5.43 3.871,3.859 5.781,8.39 5.781,13.629 v 75.98 c 0,25.621 -6.48,49.371 -19.41,71.172 -12.5,21.328 -29.422,38.277 -50.75,50.738 21.328,12.262 38.25,29.063 50.75,50.43 12.93,22.031 19.41,45.742 19.41,71.172 z"
             style="fill:url(#linearGradient456);fill-opacity:1;fill-rule:nonzero;stroke:none"
             id="path458" /></g></g><g
         id="g460"><g
           id="g462"
           clip-path="url(#clipPath466)"><path
             d="m 476.879,206.41 c -5.238,0 -9.77,1.789 -13.641,5.43 -3.629,3.859 -5.468,8.39 -5.468,13.629 v 395.472 c 0,5.188 1.839,9.758 5.468,13.59 3.871,3.629 8.403,5.469 13.641,5.469 5.191,0 9.641,-1.84 13.281,-5.469 3.86,-3.832 5.781,-8.402 5.781,-13.59 v -376.41 h 346.047 c 5.242,0 9.653,-1.91 13.282,-5.781 3.871,-3.629 5.781,-8.051 5.781,-13.281 0,-5.239 -1.91,-9.77 -5.781,-13.629 -3.629,-3.641 -8.04,-5.43 -13.282,-5.43 z"
             style="fill:url(#linearGradient472);fill-opacity:1;fill-rule:nonzero;stroke:none"
             id="path474" /></g></g><g
         id="g476"><g
           id="g478"
           clip-path="url(#clipPath482)"><path
             d="m 1056.25,244.531 c -28.16,0 -52.34,10 -72.539,30 -20,20.199 -30,44.379 -30,72.539 v 273.871 c 0,5.188 -1.91,9.758 -5.781,13.59 -3.629,3.629 -8.051,5.469 -13.282,5.469 -5.238,0 -9.769,-1.84 -13.628,-5.469 -3.641,-3.832 -5.43,-8.402 -5.43,-13.59 V 347.07 c 0,-38.832 13.711,-71.992 41.211,-99.449 27.461,-27.5 60.619,-41.211 99.449,-41.211 5.23,0 9.77,1.789 13.63,5.43 3.64,3.859 5.43,8.39 5.43,13.629 0,5.23 -1.79,9.652 -5.43,13.281 -3.86,3.871 -8.4,5.781 -13.63,5.781 z M 1299.77,640 c -5.2,0 -9.65,-1.84 -13.29,-5.469 -3.82,-3.832 -5.78,-8.402 -5.78,-13.59 V 347.07 c 0,-28.16 -10,-52.34 -29.96,-72.539 -20.23,-20 -44.41,-30 -72.54,-30 -5.47,0 -10,-1.91 -13.63,-5.781 -3.63,-3.629 -5.47,-8.051 -5.47,-13.281 0,-5.239 1.84,-9.77 5.47,-13.629 3.63,-3.641 8.16,-5.43 13.63,-5.43 38.83,0 71.96,13.711 99.46,41.211 27.46,27.457 41.21,60.617 41.21,99.449 v 273.871 c 0,5.188 -1.96,9.758 -5.78,13.59 -3.64,3.629 -8.09,5.469 -13.32,5.469 z"
             style="fill:url(#linearGradient488);fill-opacity:1;fill-rule:nonzero;stroke:none"
             id="path490" /></g></g><g
         id="g492"><g
           id="g494"
           clip-path="url(#clipPath498)"><path
             d="m 1392.42,640 c -5.19,0 -9.76,-1.84 -13.63,-5.469 -3.63,-3.832 -5.43,-8.402 -5.43,-13.59 0,-5.242 1.8,-9.652 5.43,-13.281 3.87,-3.64 8.44,-5.469 13.63,-5.469 h 171.02 V 225.469 c 0,-5.239 1.91,-9.77 5.78,-13.629 3.63,-3.641 8.05,-5.43 13.28,-5.43 5.23,0 9.77,1.789 13.63,5.43 3.64,3.859 5.43,8.39 5.43,13.629 v 376.722 h 156.02 c 5.19,0 9.65,1.829 13.28,5.469 3.87,3.629 5.78,8.039 5.78,13.281 0,5.188 -1.91,9.758 -5.78,13.59 -3.63,3.629 -8.09,5.469 -13.28,5.469 z"
             style="fill:url(#linearGradient504);fill-opacity:1;fill-rule:nonzero;stroke:none"
             id="path506" /></g></g><g
         id="g508"><g
           id="g510"
           clip-path="url(#clipPath514)"><path
             d="m 1850.23,640 c -5.23,0 -9.76,-1.84 -13.63,-5.469 -3.63,-3.832 -5.47,-8.402 -5.47,-13.59 0,-5.242 1.84,-9.652 5.47,-13.281 3.87,-3.64 8.4,-5.469 13.63,-5.469 h 170.98 V 225.469 c 0,-5.239 1.91,-9.77 5.78,-13.629 3.63,-3.641 8.05,-5.43 13.28,-5.43 5.24,0 9.77,1.789 13.64,5.43 3.63,3.859 5.43,8.39 5.43,13.629 v 376.722 h 156.01 c 5.24,0 9.65,1.829 13.28,5.469 3.87,3.629 5.78,8.039 5.78,13.281 0,5.188 -1.91,9.758 -5.78,13.59 -3.63,3.629 -8.04,5.469 -13.28,5.469 z"
             style="fill:url(#linearGradient520);fill-opacity:1;fill-rule:nonzero;stroke:none"
             id="path522" /></g></g><g
         id="g524"><g
           id="g526"
           clip-path="url(#clipPath530)"><path
             d="m 2308.01,244.531 c -5.24,0 -9.77,-1.91 -13.63,-5.781 -3.64,-3.629 -5.43,-8.051 -5.43,-13.281 0,-5.239 1.79,-9.77 5.43,-13.629 3.86,-3.641 8.39,-5.43 13.63,-5.43 h 365.11 c 5.24,0 9.65,1.789 13.29,5.43 3.86,3.859 5.82,8.39 5.82,13.629 0,5.23 -1.96,9.652 -5.82,13.281 -3.64,3.871 -8.05,5.781 -13.29,5.781 z m 365.11,357.66 c 5.24,0 9.65,1.829 13.29,5.469 3.86,3.629 5.82,8.039 5.82,13.281 0,5.188 -1.96,9.758 -5.82,13.59 -3.64,3.629 -8.05,5.469 -13.29,5.469 h -365.11 c -5.24,0 -9.77,-1.84 -13.63,-5.469 -3.64,-3.832 -5.43,-8.402 -5.43,-13.59 0,-5.242 1.79,-9.652 5.43,-13.281 3.86,-3.64 8.39,-5.469 13.63,-5.469 z M 2308.01,442.109 c -5.24,0 -9.77,-1.839 -13.63,-5.468 -3.64,-3.629 -5.43,-8.051 -5.43,-13.282 0,-5.429 1.79,-10 5.43,-13.629 3.86,-3.64 8.39,-5.429 13.63,-5.429 h 365.11 c 5.24,0 9.65,1.789 13.29,5.429 3.86,3.629 5.82,8.2 5.82,13.629 0,5.231 -1.96,9.653 -5.82,13.282 -3.64,3.629 -8.05,5.468 -13.29,5.468 z"
             style="fill:url(#linearGradient536);fill-opacity:1;fill-rule:nonzero;stroke:none"
             id="path538" /></g></g><g
         id="g540"><g
           id="g542"
           clip-path="url(#clipPath546)"><path
             d="m 3087.66,418.238 c 18.86,10.242 33.82,24.422 44.96,42.582 11.6,18.871 17.38,39.301 17.38,61.328 0,32.461 -11.56,60.274 -34.73,83.442 -22.97,22.93 -50.66,34.41 -83.12,34.41 h -266.37 c -5.23,0 -9.76,-1.84 -13.63,-5.469 -3.63,-3.832 -5.43,-8.402 -5.43,-13.59 0,-5.242 1.8,-9.652 5.43,-13.281 3.87,-3.64 8.4,-5.469 13.63,-5.469 h 266.37 c 22.03,0 40.74,-7.812 56.21,-23.519 15.66,-15.66 23.48,-34.492 23.48,-56.524 0,-22.027 -7.82,-40.859 -23.48,-56.527 -15.47,-15.699 -34.18,-23.512 -56.21,-23.512 h -266.37 c -5.23,0 -9.76,-1.839 -13.63,-5.468 -3.63,-3.629 -5.43,-8.051 -5.43,-13.282 0,-5.429 1.8,-10 5.43,-13.629 3.87,-3.64 8.4,-5.429 13.63,-5.429 h 243.56 c 28.16,0 52.34,-10.121 72.54,-30.321 20,-20 29.96,-44.179 29.96,-72.531 v -75.98 c 0,-5.239 1.95,-9.77 5.82,-13.629 3.63,-3.641 8.04,-5.43 13.28,-5.43 5.19,0 9.65,1.789 13.28,5.43 3.87,3.859 5.78,8.39 5.78,13.629 v 75.98 c 0,49.922 -20.78,88.86 -62.34,116.789 z"
             style="fill:url(#linearGradient552);fill-opacity:1;fill-rule:nonzero;stroke:none"
             id="path554" /></g></g></g></g></svg>
